PathFileType	4	(X/Y/Z)	C:\Users\Basilio\Documents\Thesis Gigler\squatting_fais\c3dfiles\038\SLS_back_pre4\markers_experimental.trc
DataRate	CameraRate	NumFrames	NumMarkers	Units	OrigDataRate	OrigDataStartFrame	OrigNumFrames
200.000000	200.000000	4	63	mm	200.000000	1734	1982
Frame#	Time	FHD			LBHD			RBHD			C7			T10			CLAV			LSHO			LUUPA			LMUPA			LDUPA			LLEP			LMEP			LRAD			LUL			LRFIN			RSHO			RUPA1			RMUPA			RDUPA			RLEP			RMEP			RRAD			RUL			RUFIN			LASI			RASI			USACR			LSACR			RSACR			LTHI1			LTHI2			LTHI3			LTHI4			LLFC			LMFC			LTIB1			LTIB2			LTIB3			LTIB4			LLMAL			LMMAL			LHEE			LMT1			LMT2			LMT5			RTHI			RTHI2			RTHI3			RTHI4			RLFC			RMFC			RTIB1			RTIB2			RTIB3			RTIB4			RLMAL			RMMAL			RHEE			RMT1			RMT2			RMT5			*61			*62			
		X1	Y1	Z1	X2	Y2	Z2	X3	Y3	Z3	X4	Y4	Z4	X5	Y5	Z5	X6	Y6	Z6	X7	Y7	Z7	X8	Y8	Z8	X9	Y9	Z9	X10	Y10	Z10	X11	Y11	Z11	X12	Y12	Z12	X13	Y13	Z13	X14	Y14	Z14	X15	Y15	Z15	X16	Y16	Z16	X17	Y17	Z17	X18	Y18	Z18	X19	Y19	Z19	X20	Y20	Z20	X21	Y21	Z21	X22	Y22	Z22	X23	Y23	Z23	X24	Y24	Z24	X25	Y25	Z25	X26	Y26	Z26	X27	Y27	Z27	X28	Y28	Z28	X29	Y29	Z29	X30	Y30	Z30	X31	Y31	Z31	X32	Y32	Z32	X33	Y33	Z33	X34	Y34	Z34	X35	Y35	Z35	X36	Y36	Z36	X37	Y37	Z37	X38	Y38	Z38	X39	Y39	Z39	X40	Y40	Z40	X41	Y41	Z41	X42	Y42	Z42	X43	Y43	Z43	X44	Y44	Z44	X45	Y45	Z45	X46	Y46	Z46	X47	Y47	Z47	X48	Y48	Z48	X49	Y49	Z49	X50	Y50	Z50	X51	Y51	Z51	X52	Y52	Z52	X53	Y53	Z53	X54	Y54	Z54	X55	Y55	Z55	X56	Y56	Z56	X57	Y57	Z57	X58	Y58	Z58	X59	Y59	Z59	X60	Y60	Z60	X61	Y61	Z61	X62	Y62	Z62	X63	Y63	Z63	

1735	8.67	-203.4939727783204	1768.724487304688	-1023.748901367188	-359.6126403808594	1728.70947265625	-1091.541137695313	-357.8024902343751	1712.389038085938	-947.3215332031252	-415.8182373046876	1545.09912109375	-1030.847045898438	-406.8433227539064	1263.984130859375	-1022.472106933594	-272.2684020996094	1525.794555664063	-1034.155029296875	-324.0195922851563	1568.71337890625	-1177.82373046875	-156.7422485351563	1500.945922851563	-1304.23681640625	-128.2326202392578	1531.852416992188	-1275.218383789063	-87.5084686279297	1503.775268554688	-1309.18017578125	-25.13367271423341	1501.302001953125	-1307.859252929688	-21.42875862121582	1425.5556640625	-1286.325073242188	nan	nan	nan	266.4098815917969	1488.735717773438	-1249.659790039063	322.7170410156251	1506.016357421875	-1155.408935546875	-327.3523864746094	1547.299072265625	-891.421569824219	-173.5428924560547	1508.530639648438	-774.1694335937502	-137.5540008544922	1517.132934570313	-806.238952636719	-105.8190231323242	1500.794189453125	-757.2816162109376	-33.27741241455079	1494.4560546875	-746.9390869140626	-31.04276275634766	1415.90771484375	-764.3665161132814	243.8244171142579	1474.408447265625	-823.049011230469	254.5410766601563	1491.571655273438	-755.2589111328126	324.5885314941407	1506.592529296875	-829.8248291015627	-237.3196716308594	1064.555908203125	-1113.901000976563	-261.2722778320313	1095.419799804688	-865.3637695312502	-415.9741210937501	1128.3369140625	-1007.57080078125	-427.8918457031251	1097.914184570313	-1033.305419921875	-430.5486450195314	1101.572509765625	-976.7662353515627	-276.1501159667969	742.7681884765626	-1147.761352539063	-246.7053375244141	663.7381591796876	-1134.534912109375	-201.5923156738282	670.0437622070314	-1111.316284179688	-275.8568115234376	616.5222778320314	-1113.387573242188	-272.7386474609376	554.7696533203126	-1102.320922851563	-266.3923034667969	552.1569824218751	-982.0960693359377	-255.9265594482422	368.6980285644532	-1019.932983398438	-300.0017395019532	325.9947814941407	-1083.425537109375	-265.1665344238282	319.9840698242188	-1053.299194335938	-286.5425109863282	244.9701843261719	-1020.630676269531	-381.3845214843751	119.4496383666992	-1035.784057617188	-343.7883300781251	134.1558837890625	-964.4635009765627	-432.262176513672	101.6289520263672	-981.3389892578127	-233.4363708496094	45.32008743286134	-974.8315429687502	-225.3563232421876	45.48973464965821	-1025.297485351563	-270.5804138183594	35.90274810791016	-1071.97509765625	-278.3734436035157	824.0881958007815	-791.9500732421877	-234.1622467041016	773.8413696289065	-782.3110351562502	-201.5118408203126	778.905212402344	-787.5938110351565	-252.4337615966797	689.8020019531251	-794.2334594726565	-230.8499603271485	564.4426269531251	-798.858581542969	-226.4999084472657	558.0463867187501	-913.3712158203127	-231.3114318847657	383.6493530273438	-815.548522949219	-331.0933532714844	331.2121582031251	-784.2570800781252	-285.3218383789063	320.0125427246094	-791.4552001953127	-287.0062866210938	266.7805480957032	-818.3863525390627	-384.1516113281251	167.3325805664063	-790.6784667968752	-348.5698242187501	167.8444061279297	-867.7573242187502	-446.4487915039064	132.6999664306641	-859.049011230469	-237.4869689941407	81.8396682739258	-833.4696044921877	-242.9639739990235	85.76920318603517	-787.3089599609377	-290.1880798339844	72.84234619140626	-747.9493408203126	nan	nan	nan	nan	nan	nan	
1736	8.675000000000001	-203.1755371093751	1768.80712890625	-1023.657470703125	-359.4327392578126	1728.76416015625	-1091.353759765625	-357.6617736816407	1712.451049804688	-947.1260986328127	-415.7373657226564	1545.2431640625	-1030.561645507813	-406.7879638671876	1264.02978515625	-1022.174987792969	-272.1247253417969	1525.758056640625	-1033.982666015625	-324.0404052734376	1568.675415039063	-1177.618530273438	-156.7861480712891	1500.791870117188	-1304.091186523438	-128.2212982177735	1531.760864257813	-1275.131591796875	-87.5538787841797	1503.56005859375	-1309.093994140625	-25.17164039611817	1501.141967773438	-1307.729248046875	-21.49467849731446	1425.315063476563	-1286.316284179688	nan	nan	nan	266.3869323730469	1488.3046875	-1249.852416992188	322.8788146972657	1505.525756835938	-1155.662963867188	-327.2052917480469	1547.257080078125	-891.188903808594	-173.2720184326172	1508.427368164063	-773.940368652344	-137.4131622314453	1516.570434570313	-806.1960449218752	-105.6289367675782	1500.661865234375	-757.1003417968751	-32.98211288452149	1494.324462890625	-746.7605590820314	-30.78467750549317	1416.020385742188	-764.1197509765626	243.9553375244141	1473.988525390625	-823.0659790039065	254.7965698242188	1491.117431640625	-755.3343505859376	324.6821899414063	1506.125732421875	-829.8823242187502	-237.2515563964844	1064.88916015625	-1113.618286132813	-261.1061706542969	1095.426147460938	-865.1900024414065	-415.9992675781251	1128.663208007813	-1007.354064941406	-427.7980957031251	1097.913208007813	-1032.94189453125	-430.4276123046876	1101.635986328125	-976.4293212890627	-276.3291931152344	742.8259277343751	-1147.708862304688	-246.8677978515626	663.7626342773439	-1134.47314453125	-201.6930084228516	670.0008544921876	-1111.343994140625	-275.9565734863282	616.5586547851564	-1113.326904296875	-272.8530578613282	554.8010253906251	-1102.290893554688	-266.2048645019532	552.2950439453126	-982.4339599609377	-255.9807281494141	368.6710510253907	-1020.01953125	-300.1222229003907	326.0083312988282	-1083.487915039063	-265.2599487304688	320.0101623535157	-1053.390014648438	-286.5821533203126	245.0644226074219	-1020.780639648438	-381.3953552246094	119.3915710449219	-1035.840942382813	-343.7683410644532	134.214828491211	-964.6199951171877	-432.2735595703126	101.5505065917969	-981.2976074218752	-233.4177246093751	45.34103012084962	-974.820495605469	-225.3838653564454	45.40108489990235	-1025.302612304688	-270.6206970214844	35.89579010009766	-1071.994995117188	-278.9192810058594	823.936218261719	-791.870056152344	-235.3840942382813	773.1212158203127	-782.554626464844	-202.3248901367188	778.4241943359377	-787.554138183594	-253.4579010009766	689.4813232421876	-794.275329589844	-231.9074249267579	563.7961425781251	-799.2539672851565	-227.9698791503907	557.5894165039064	-913.7563476562502	-231.2376251220704	383.0737304687501	-815.8577270507815	-330.1590576171876	329.4815368652344	-783.5927734375002	-284.6598510742188	318.9740905761719	-791.1979980468752	-285.8022460937501	265.7242431640626	-818.2836914062502	-381.9166259765626	165.1862945556641	-789.7351074218752	-345.4433288574219	165.4529724121094	-866.806091308594	-444.7356567382814	129.9516906738282	-857.856140136719	-234.8583374023438	80.88117980957033	-833.6632080078127	-240.0079040527344	84.90553283691408	-787.6423339843752	-286.8090820312501	71.67048645019533	-747.8522949218751	nan	nan	nan	nan	nan	nan	
1737	8.68	-203.0471191406251	1768.822021484375	-1023.570983886719	-359.2859497070313	1729.125366210938	-1091.170654296875	-357.4441833496094	1712.50537109375	-946.9412841796877	-415.6077270507814	1545.284790039063	-1030.33056640625	-406.6466674804689	1264.064697265625	-1021.814392089844	-272.1187133789063	1525.729614257813	-1033.758666992188	-324.0594482421876	1568.644287109375	-1177.448364257813	-156.8766174316407	1500.640747070313	-1303.943603515625	-128.197021484375	1531.6708984375	-1275.015502929688	-87.55593109130861	1503.439208984375	-1309.0283203125	-25.2624855041504	1500.902709960938	-1307.652587890625	-21.56941032409668	1425.109619140625	-1286.230224609375	nan	nan	nan	266.3388366699219	1487.973999023438	-1250.051147460938	322.9910278320313	1505.14208984375	-1155.983032226563	-327.0295104980469	1547.286987304688	-890.9765625000002	-173.1100769042969	1508.195190429688	-773.8237915039065	-137.1934967041016	1516.404907226563	-805.954772949219	-105.7014083862305	1500.287841796875	-756.6807250976564	-32.72260665893555	1494.11181640625	-746.5130004882814	-30.60612487792969	1415.838989257813	-764.0130004882814	244.1658325195313	1473.513793945313	-823.079772949219	255.0934600830079	1490.65380859375	-755.4486694335939	324.7832641601563	1505.629638671875	-829.905944824219	-237.3111114501954	1064.94140625	-1113.457763671875	-260.9767456054688	1095.472290039063	-864.9609985351565	-415.9761047363282	1128.718017578125	-1006.986145019531	-428.5703735351564	1097.878784179688	-1032.887573242188	-430.3912353515626	1101.701782226563	-976.0974731445315	-276.5437927246094	742.8617553710939	-1147.63720703125	-247.0309600830079	663.8168334960939	-1134.478271484375	-201.8104248046876	670.0334472656251	-1111.369384765625	-276.1030883789063	616.5631713867189	-1113.298217773438	-272.9536437988282	554.8269653320314	-1102.267211914063	-266.2272033691407	552.3050537109376	-982.425476074219	-255.9860076904297	368.6844787597657	-1020.035034179688	-300.1677856445313	326.0557556152344	-1083.5732421875	-265.3510742187501	320.0994262695313	-1053.44580078125	-286.6255798339844	245.1585083007813	-1020.894897460938	-381.4853515625001	119.4032821655274	-1035.919799804688	-343.6457824707032	134.1510925292969	-964.6712036132815	-432.3399047851564	101.6021957397461	-981.3416748046877	-233.496322631836	45.37353897094727	-974.8665161132815	-225.4191131591797	45.43571472167969	-1025.358154296875	-270.6370239257813	35.85008239746094	-1072.033325195313	-279.5201110839844	823.6020507812502	-791.7271728515627	-236.0049133300782	772.7366333007815	-782.5015258789065	-203.2338409423829	777.992370605469	-787.5236816406252	-254.6987609863282	689.2034912109376	-794.3772583007815	-233.0918426513672	563.1154174804689	-799.389343261719	-229.6617279052735	556.9445190429689	-914.1245117187502	-231.1371612548829	382.3393859863282	-816.124694824219	-329.5415649414063	328.0371398925782	-783.237976074219	-283.6859130859376	317.6725769042969	-790.9938964843752	-284.8149414062501	264.5164489746094	-818.1140136718752	-379.6943664550782	163.1829833984375	-789.1057128906252	-344.4947814941407	164.1707916259766	-866.4831542968752	-442.6077880859376	126.9318161010742	-856.8237915039065	-231.9195404052735	80.47917938232423	-834.4585571289065	-237.021469116211	84.27892303466798	-787.9554443359377	-283.3640747070313	70.59075927734376	-747.8351440429689	nan	nan	nan	nan	nan	nan	
1738	8.685	-203.0351715087891	1768.720703125	-1023.386779785156	-359.1230163574219	1729.14453125	-1090.995239257813	-357.2375793457032	1712.496826171875	-946.7537841796877	-415.4649353027345	1545.324584960938	-1030.072265625	-406.5928039550782	1264.1357421875	-1021.514709472656	-271.9121093750001	1525.734375	-1033.570556640625	-323.9969787597657	1568.595825195313	-1177.301879882813	-156.9118347167969	1500.472290039063	-1303.743041992188	-128.267562866211	1531.533813476563	-1274.875610351563	-87.63269042968751	1503.222412109375	-1308.937255859375	-25.33136367797852	1500.685546875	-1307.601806640625	-21.61959838867188	1424.865600585938	-1286.070678710938	nan	nan	nan	266.3135375976563	1487.603881835938	-1250.235717773438	323.0781555175782	1504.745239257813	-1156.258056640625	-326.8363952636719	1547.305419921875	-890.7297363281252	-172.8239440917969	1508.054443359375	-773.6271972656252	-136.9967651367188	1516.280639648438	-805.837585449219	-105.6003341674805	1500.141235351563	-756.4528198242189	-32.50863265991212	1493.921997070313	-746.3912963867189	-30.47346496582032	1415.621826171875	-763.7982177734376	244.3076934814454	1473.08935546875	-823.1251220703127	255.3021545410157	1490.302001953125	-755.5739135742189	324.9661865234376	1505.227783203125	-830.1489257812502	-237.4378356933594	1065.016479492188	-1113.27880859375	-260.8019409179688	1095.477172851563	-864.8384399414065	-416.0003662109376	1128.812377929688	-1006.548706054688	-428.5415954589845	1097.966918945313	-1032.475341796875	-430.3914184570314	1101.736450195313	-975.715270996094	-276.7423400878907	742.8937377929689	-1147.5078125	-247.1444854736329	663.8167114257814	-1134.463623046875	-201.9385070800782	670.0432739257814	-1111.400390625	-276.2554931640626	616.5498046875001	-1113.201416015625	-273.0458068847657	554.8557739257814	-1102.255004882813	-266.1486206054688	552.2846069335939	-982.3374023437502	-256.0008239746094	368.6546936035157	-1020.142395019531	-300.2055053710938	326.0814514160157	-1083.648193359375	-265.4161071777344	320.0382385253907	-1053.466674804688	-286.6632385253907	245.0620727539063	-1020.931274414063	-381.4637145996094	119.3737945556641	-1035.95068359375	-343.5904235839844	134.1693267822266	-964.8023071289065	-432.4041748046876	101.6514129638672	-981.3417968750002	-233.4816131591797	45.50450134277344	-974.8596801757815	-225.3980560302735	45.44950485229493	-1025.332153320313	-270.6077575683594	35.77730941772462	-1072.078369140625	-280.0833435058594	823.3528442382815	-791.6229248046877	-236.8513488769532	772.3646240234377	-782.3772583007815	-203.9285430908204	777.4616699218752	-787.5603027343752	-255.7562866210938	688.9024658203126	-794.4943847656252	-234.0740356445313	562.5950317382814	-799.4233398437502	-231.3863677978516	556.4440917968751	-914.7420043945315	-230.8993835449219	381.5717163085938	-816.3941650390627	-328.9916381835938	326.0980224609376	-783.132507324219	-283.0003662109376	316.5907287597657	-790.9350585937502	-283.7314147949219	263.7718811035157	-817.8811035156252	-377.7321777343751	161.232421875	-788.2153320312502	-343.0529174804688	162.7416534423828	-866.0879516601565	-440.7472534179689	124.7732696533203	-855.3469238281252	-229.5167694091797	80.17115783691408	-834.7275390625002	-234.3527832031251	84.00804138183595	-788.133483886719	-280.1430664062501	69.62179565429689	-747.4913940429689	nan	nan	nan	nan	nan	nan	
